<svg xmlns="http://www.w3.org/2000/svg" width="58" height="53" viewBox="0 0 58 53">
  <defs>
    <style>
      .cls-1 {
        fill: #f3acbc;
        fill-rule: evenodd;
      }
    </style>
  </defs>
  <path id="ICON_CONFIANÇA" data-name="ICON CONFIANÇA" class="cls-1" d="M748.049,1467.72a0.846,0.846,0,0,0-1.106.46,3.111,3.111,0,0,1-5.067,1.03,3.125,3.125,0,0,1-.679-1.02,0.849,0.849,0,0,0-1.576.63,4.731,4.731,0,0,0,1.054,1.59,4.807,4.807,0,0,0,7.842-1.59A0.841,0.841,0,0,0,748.049,1467.72Zm-8.862-5.81a0.849,0.849,0,0,0-.85.85v0.47a0.85,0.85,0,1,0,1.7,0v-0.47A0.849,0.849,0,0,0,739.187,1461.91Zm9.765,0a0.849,0.849,0,0,0-.849.85v0.47a0.85,0.85,0,1,0,1.7,0v-0.47A0.849,0.849,0,0,0,748.952,1461.91Zm-30.039,5.81a0.847,0.847,0,0,0-1.107.46,3.111,3.111,0,0,1-5.067,1.03,3.125,3.125,0,0,1-.679-1.02,0.848,0.848,0,0,0-1.575.63,4.8,4.8,0,0,0,8.9,0A0.842,0.842,0,0,0,718.913,1467.72Zm-8.863-5.81a0.85,0.85,0,0,0-.85.85v0.47a0.85,0.85,0,0,0,1.7,0v-0.47A0.85,0.85,0,0,0,710.05,1461.91Zm9.766,0a0.849,0.849,0,0,0-.85.85v0.47a0.85,0.85,0,1,0,1.7,0v-0.47A0.849,0.849,0,0,0,719.816,1461.91Zm37.334-4.72a0.847,0.847,0,0,0,.85-0.84v-2.36a6.066,6.066,0,0,0-6.073-6.05h-1.142l-0.139-.32a4.353,4.353,0,0,0-4-2.62h-5.635a10.878,10.878,0,0,0-10.878,10.85v17.31a4.558,4.558,0,0,0,4.561,4.54h4.86v1.2H719.442v-1.62a10.567,10.567,0,0,0,6.007-8.21,3.133,3.133,0,0,0,3.125-3.12v-1.08a3.1,3.1,0,0,0-.73-2l1.955-7.72a0.849,0.849,0,1,0-1.648-.41l-1.81,7.14a3.052,3.052,0,0,0-.8-0.13v-2.86a0.85,0.85,0,0,0-1.1-.81c-4.656,1.43-8.736,1.35-11.8-.22a8.3,8.3,0,0,1-3.255-2.8,0.845,0.845,0,0,0-.956-0.41,0.854,0.854,0,0,0-.634.82c0,2.1-.45,2.56-2.671,2.71a0.847,0.847,0,0,0-.792.84v2.73a2.931,2.931,0,0,0-.89.16,28.063,28.063,0,0,1-.666-2.95c-0.132-1.06-.04-4.22.006-5.35,0-.01,0-0.03,0-0.04a2.516,2.516,0,0,1,2.523-2.51h1.288a0.85,0.85,0,0,0,.6-0.25l3.039-3.03a2.531,2.531,0,0,1,2.369-.67l10.686,2.53a7.136,7.136,0,0,0,1.722.2,7.482,7.482,0,0,0,4.633-1.61,0.071,0.071,0,0,1,.1-0.01,0.082,0.082,0,0,1,.037.1l-0.644,2.54a0.849,0.849,0,1,0,1.648.41l0.643-2.54a1.785,1.785,0,0,0-2.841-1.83,5.737,5.737,0,0,1-3.575,1.25,5.405,5.405,0,0,1-1.328-.16l-10.687-2.53a4.241,4.241,0,0,0-3.964,1.12l-2.79,2.78H705.3a4.221,4.221,0,0,0-4.222,4.19,55.545,55.545,0,0,0,.006,5.62,33.041,33.041,0,0,0,.872,3.78,3.1,3.1,0,0,0-.667,1.92v1.08a3.132,3.132,0,0,0,3.123,3.12,10.561,10.561,0,0,0,6.007,8.21v1.62h-1.769a7.1,7.1,0,0,0-1.53.17,2.409,2.409,0,0,0-2.088-1.21h-2.069a2.968,2.968,0,0,0-2.967,2.96v4.61a2.966,2.966,0,0,0,1.729,2.69v9.03a0.849,0.849,0,0,0,.849.85h24.71a0.849,0.849,0,0,0,.85-0.85v-11.34a6.866,6.866,0,0,0-2.389-5.21h13.81v0.42c0,2.44,3.678,4.56,4.1,4.79a0.832,0.832,0,0,0,.827,0c0.42-.23,4.1-2.35,4.1-4.79v-0.42h1.77a5.226,5.226,0,0,1,5.226,5.21v10.49h-2.382v-5.67a0.85,0.85,0,1,0-1.7,0v5.67H736.645v-9.74a0.849,0.849,0,0,0-.849-0.85h-5.1a0.85,0.85,0,0,0,0,1.7h4.247v9.74a0.849,0.849,0,0,0,.85.85h20.628a0.849,0.849,0,0,0,.85-0.85v-11.34a6.926,6.926,0,0,0-6.925-6.91H748.58v-1.2h4.86a4.557,4.557,0,0,0,4.56-4.54v-12.81a0.85,0.85,0,1,0-1.7,0v1.92a3.141,3.141,0,0,0-1.628-.52v-4.08a9.445,9.445,0,0,0-1.7-5.42,0.846,0.846,0,0,0-.58-0.35,0.82,0.82,0,0,0-.656.18,20.968,20.968,0,0,1-17.252,4.36,0.812,0.812,0,0,0-.685.17,0.845,0.845,0,0,0-.324.62c-0.008.14-.011,0.28-0.011,0.44v4.08a3.138,3.138,0,0,0-1.627.52v-6.42a9.18,9.18,0,0,1,9.178-9.16h5.636a2.656,2.656,0,0,1,2.435,1.6l0.36,0.83a0.85,0.85,0,0,0,.78.51h1.7a4.375,4.375,0,0,1,4.374,4.36v2.36A0.847,0.847,0,0,0,757.15,1457.19Zm-51.109,10.99a0.847,0.847,0,0,0-.848-0.81H704.42a1.428,1.428,0,0,1-1.428-1.42v-1.08a1.421,1.421,0,0,1,1.428-1.42h0.759a0.849,0.849,0,0,0,.85-0.85v-2.81c1.771-.26,2.767-0.94,3.2-2.29a10.758,10.758,0,0,0,2.523,1.81c3.967,2.09,8.586,1.62,12.086.7v2.59a0.849,0.849,0,0,0,.85.85h0.758a1.421,1.421,0,0,1,1.428,1.42v1.08a1.428,1.428,0,0,1-1.428,1.42h-0.773a0.847,0.847,0,0,0-.849.8,8.82,8.82,0,0,1-2.751,5.97,9.03,9.03,0,0,1-2.8,1.81h-0.015a8.886,8.886,0,0,1-3.321.64,8.734,8.734,0,0,1-3.318-.64c-0.016,0-.033-0.01-0.049-0.01A8.888,8.888,0,0,1,706.041,1468.18Zm11.7,9.73v3.11a2.8,2.8,0,0,1-2.81,2.8,2.8,2.8,0,0,1-2.811-2.8v-3.11a10.867,10.867,0,0,0,2.812.38A10.551,10.551,0,0,0,717.743,1477.91Zm-16.044,7.52v-4.61a1.271,1.271,0,0,1,1.268-1.27h2.069a0.71,0.71,0,0,1,.707.71v5.73a0.7,0.7,0,0,1-.707.7h-2.069A1.262,1.262,0,0,1,701.7,1485.43Zm24.74,0.38v10.49h-2.382v-5.67a0.85,0.85,0,1,0-1.7,0v5.67h-14.85v-5.67a0.85,0.85,0,1,0-1.7,0v5.67h-2.381v-7.91h1.608a2.408,2.408,0,0,0,2.406-2.4v-5.25a4.9,4.9,0,0,1,1.211-.14h1.77v0.42a4.51,4.51,0,0,0,9.019,0v-0.42h1.771A5.226,5.226,0,0,1,726.439,1485.81Zm20.441-4.79c0,0.94-1.529,2.27-2.81,3.07-1.283-.8-2.812-2.13-2.812-3.07v-3.11a10.859,10.859,0,0,0,2.811.38,10.561,10.561,0,0,0,2.811-.38v3.11Zm9.421-12.47v4.61h0a2.859,2.859,0,0,1-2.861,2.85h-2.8a9.443,9.443,0,0,0,.74-0.64,10.53,10.53,0,0,0,3.2-6.3A3.07,3.07,0,0,0,756.3,1468.55Zm-22.744-5.1h0.758a0.849,0.849,0,0,0,.849-0.85v-4.33a22.7,22.7,0,0,0,16.887-4.28,7.714,7.714,0,0,1,.922,3.68v4.93a0.85,0.85,0,0,0,.85.85h0.759a1.428,1.428,0,0,1,1.428,1.42v1.08a1.427,1.427,0,0,1-1.428,1.42H753.81a0.848,0.848,0,0,0-.849.81,8.9,8.9,0,0,1-5.54,7.76c-0.015.01-.03,0.01-0.045,0.02a9.01,9.01,0,0,1-3.307.63,8.738,8.738,0,0,1-3.318-.64,0.11,0.11,0,0,1-.05-0.02,8.861,8.861,0,0,1-5.523-7.75,0.847,0.847,0,0,0-.849-0.81h-0.772a1.428,1.428,0,0,1-1.429-1.42v-1.08h0A1.422,1.422,0,0,1,733.557,1463.45Zm0,5.62a10.533,10.533,0,0,0,3.943,6.94h-2.8a2.859,2.859,0,0,1-2.861-2.85v-4.61A3.067,3.067,0,0,0,733.553,1469.07Z" transform="translate(-700 -1445)"/>
</svg>
