<svg xmlns="http://www.w3.org/2000/svg" width="115" height="28" viewBox="0 0 115 28">
  <defs>
    <style>
      .cls-1 {
        fill: #f9f9f9;
        fill-rule: evenodd;
      }
    </style>
  </defs>
  <path id="LOGO_CUBOS" data-name="LOGO CUBOS" class="cls-1" d="M591.1,3941.62v2.05h-6.642c-1.872,0-2.82,1-2.82,3v4.65c0,2,.948,3.03,2.82,3.03H591.1v2.03h-7.011c-2.952,0-4.4-1.6-4.4-4.73v-5.3c0-3.14,1.45-4.73,4.4-4.73H591.1Zm4.929,0.03v9.67c0,2,.949,3.03,2.794,3.03h4.586c1.872,0,2.821-1.03,2.821-3.03v-9.67h1.95v10c0,3.13-1.476,4.73-4.4,4.73h-5.3c-2.952,0-4.4-1.6-4.4-4.73v-10h1.95Zm18.055-6.65v16.32c0,2,.949,3.03,2.794,3.03h4.639c1.872,0,2.821-1.03,2.821-3.03v-4.62c0-2-.949-3-2.821-3h-6.431v-2.05h6.827c2.952,0,4.4,1.59,4.4,4.73v5.32c0,3.14-1.45,4.73-4.4,4.73h-5.377c-2.952,0-4.4-1.59-4.4-4.73V3935h1.95Zm17.818,16.32c0,2,.976,3.03,2.926,3.03h4.191c1.924,0,2.926-1.03,2.926-3.03v-4.62q0-3-2.926-3h-4.191c-1.924,0-2.926,1-2.926,3v4.62Zm7.486-9.7c3.031,0,4.586,1.59,4.586,4.73v5.33c0,3.13-1.555,4.73-4.586,4.73h-4.955c-3.058,0-4.586-1.6-4.586-4.73v-5.33c0-3.14,1.528-4.73,4.586-4.73h4.955Zm19.98,0v1.78h-8.725a1.588,1.588,0,0,0-1.819,1.76v1.16a1.455,1.455,0,0,0,1.687,1.63h6.405c2.056,0,3.084,1.02,3.084,3.02v2.14c0,2.19-1.107,3.27-3.321,3.27h-9.621v-1.78h9.094c1.291,0,1.924-.57,1.924-1.76v-1.68a1.44,1.44,0,0,0-1.66-1.62H650.01c-2.056,0-3.11-1.03-3.11-3.03v-1.67c0-2.14,1.081-3.25,3.242-3.25l9.226,0.03h0ZM565.085,3935H551.7a6.855,6.855,0,0,0-6.7,7v14a6.855,6.855,0,0,0,6.7,7h13.39a6.855,6.855,0,0,0,6.695-7v-14a6.855,6.855,0,0,0-6.695-7m0,2.05A4.838,4.838,0,0,1,569.8,3942v14a4.838,4.838,0,0,1-4.718,4.95H551.7a4.838,4.838,0,0,1-4.718-4.95v-14a4.838,4.838,0,0,1,4.718-4.95h13.39Z" transform="translate(-545 -3935)"/>
</svg>
