<svg xmlns="http://www.w3.org/2000/svg" width="109" height="29" viewBox="0 0 109 29">
  <defs>
    <style>
      .cls-1 {
        fill: #f9f9f9;
        fill-rule: evenodd;
      }
    </style>
  </defs>
  <path id="LOGO_E-RURAL" data-name="LOGO E-RURAL" class="cls-1" d="M588.9,3893.5h0a8.576,8.576,0,0,1,1.291-3.39,8.483,8.483,0,0,1,2.137-2.23,7.244,7.244,0,0,1,2.582-1.25,9.318,9.318,0,0,1,2.626-.4,11.653,11.653,0,0,1,1.247.04,3.215,3.215,0,0,1,.979.14,0.549,0.549,0,0,1,.4.31,0.613,0.613,0,0,1,.045.49l-0.535,2.99a0.847,0.847,0,0,1-.4.62,1.256,1.256,0,0,1-.713.18h-1.068a3.09,3.09,0,0,0-2.226.85,4.146,4.146,0,0,0-1.2,2.36l-2.27,12.76a1,1,0,0,1-.446.76,1.275,1.275,0,0,1-.623.23h-3.7a0.442,0.442,0,0,1-.4-0.18,0.711,0.711,0,0,1-.09-0.54Zm13.623-6.51a0.81,0.81,0,0,1,.311-0.54,0.688,0.688,0,0,1,.49-0.18h4.051c0.4,0,.534.23,0.445,0.72l-2.537,14.41h0a3.981,3.981,0,0,0-.045.71,2.724,2.724,0,0,0,.223.63,2.422,2.422,0,0,0,.489.44,2.082,2.082,0,0,0,.757.18,1.981,1.981,0,0,0,1.469-.58,2.474,2.474,0,0,0,.713-1.34l0.044-.22v-0.09l2.493-14.14a0.815,0.815,0,0,1,.312-0.54,0.684,0.684,0,0,1,.489-0.18h4.007a0.444,0.444,0,0,1,.4.18,0.7,0.7,0,0,1,.089.54l-2.271,13.2v0.14l-0.222,1.16a6.237,6.237,0,0,1-.935,2.49,7.791,7.791,0,0,1-1.781,2.06,8.716,8.716,0,0,1-2.537,1.38,9.064,9.064,0,0,1-3.206.49,6.665,6.665,0,0,1-2.715-.53,5.9,5.9,0,0,1-1.959-1.43,4.6,4.6,0,0,1-1.069-2.05,5.706,5.706,0,0,1-.089-2.46Zm15.4,6.51h0a8.56,8.56,0,0,1,1.291-3.39,8.467,8.467,0,0,1,2.137-2.23,7.244,7.244,0,0,1,2.582-1.25,9.313,9.313,0,0,1,2.626-.4,11.653,11.653,0,0,1,1.247.04,3.215,3.215,0,0,1,.979.14,0.549,0.549,0,0,1,.4.31,0.609,0.609,0,0,1,.044.49l-0.534,2.99a0.847,0.847,0,0,1-.4.62,1.258,1.258,0,0,1-.713.18h-1.113a3.091,3.091,0,0,0-2.226.85,4.146,4.146,0,0,0-1.2,2.36l-2.27,12.76a1,1,0,0,1-.445.76,1.279,1.279,0,0,1-.623.23h-3.7a0.443,0.443,0,0,1-.4-0.18,0.711,0.711,0,0,1-.089-0.54Zm13.444-4.33a0.669,0.669,0,0,1-.044-0.31,0.758,0.758,0,0,1,.044-0.31,1.176,1.176,0,0,1,.223-0.31c0.089-.09.267-0.18,0.445-0.32,0.4-.22.846-0.44,1.291-0.67a14.615,14.615,0,0,1,1.425-.58,8.755,8.755,0,0,1,1.647-.4,13.009,13.009,0,0,1,1.959-.13,7.1,7.1,0,0,1,2.4.4,5.818,5.818,0,0,1,2,1.25,4.723,4.723,0,0,1,1.2,2.05,5.357,5.357,0,0,1,.089,2.81l-1.558,8.93a6.7,6.7,0,0,1-.757,2.23,6.994,6.994,0,0,1-1.291,1.65,10.285,10.285,0,0,1-1.558,1.16c-0.579.31-1.113,0.53-1.647,0.76a11.772,11.772,0,0,1-1.6.4,7.337,7.337,0,0,1-1.291.13,8.7,8.7,0,0,1-2.4-.36,5.467,5.467,0,0,1-2.092-1.16,5.077,5.077,0,0,1-1.336-2.05,6.745,6.745,0,0,1-.133-3.03l0.089-.45a7.812,7.812,0,0,1,1.023-2.81,6.756,6.756,0,0,1,1.781-1.92,8.714,8.714,0,0,1,2.271-1.11,9.4,9.4,0,0,1,2.537-.36h2.4l0.267-1.47a6.86,6.86,0,0,0,.045-0.98,2.156,2.156,0,0,0-.312-0.9,2.5,2.5,0,0,0-.668-0.67,2.248,2.248,0,0,0-1.113-.26,6.466,6.466,0,0,0-2.181.35,8.775,8.775,0,0,0-1.558.76,1.927,1.927,0,0,1-.579.23,0.284,0.284,0,0,1-.356-0.27Zm6.5,9.19h-0.979a4.175,4.175,0,0,0-1.425.23,2.91,2.91,0,0,0-.979.53,2.035,2.035,0,0,0-.579.8,8.27,8.27,0,0,0-.312.94l-0.044.31a2.01,2.01,0,0,0,0,1.03,1.609,1.609,0,0,0,.356.67,1.675,1.675,0,0,0,.579.4,1.779,1.779,0,0,0,1.335,0,2.433,2.433,0,0,0,.668-0.36,2.851,2.851,0,0,0,.534-0.58,3.327,3.327,0,0,0,.312-0.89Zm10.818-18.56a0.761,0.761,0,0,1,.846-0.71h3.917c0.445,0,.624.22,0.534,0.71l-3.784,21.55a1.619,1.619,0,0,0,.179,1.34,1.755,1.755,0,0,0,1.469.45H652.2a0.767,0.767,0,0,1,.356.09,0.229,0.229,0,0,1,.134.17,0.561,0.561,0,0,1,0,.27,0.36,0.36,0,0,1-.045.23l-0.579,3.3a0.457,0.457,0,0,1-.089.22,0.414,0.414,0,0,1-.178.22,1.812,1.812,0,0,1-.356.18,2.457,2.457,0,0,1-.668.05h-1.291a6.6,6.6,0,0,1-2.181-.32,3.38,3.38,0,0,1-2.582-2.9,7.865,7.865,0,0,1,.089-3.03ZM584.8,3897.38h-5.386a0.591,0.591,0,0,1-.579-0.58v-2.18a0.585,0.585,0,0,1,.579-0.58H584.8a0.585,0.585,0,0,1,.579.58v2.18a0.591,0.591,0,0,1-.579.58m-27.913,7.68c-2.137.26-4.318,0.62-6.544,1.02a7.343,7.343,0,0,0,.712.4,1.619,1.619,0,0,0,.668.14,104.021,104.021,0,0,1,12.643-.54,0.984,0.984,0,0,0,.624-0.18,10.751,10.751,0,0,0,1.246-.76,0.465,0.465,0,0,0-.133-0.89c-1.6.05-3.25,0.14-4.986,0.31-1.425.18-2.8,0.32-4.23,0.5m-4.051,2.23a13.655,13.655,0,0,0,4.318.71,14.441,14.441,0,0,0,3.918-.54c-2.627-.13-5.387-0.22-8.236-0.17m12.6-6.79c-0.891.18-1.825,0.32-2.76,0.54-1.558.31-3.161,0.71-4.853,1.16-1.736.45-3.561,0.98-5.386,1.56-1.2.36-2.4,0.76-3.651,1.21a0.662,0.662,0,0,0,.223.17,1.2,1.2,0,0,0,1.113.23c1.291-.31,2.537-0.63,3.784-0.94a107.3,107.3,0,0,1,11.53-2.01c0.49-.04.979-0.09,1.469-0.13,0.712-.05,1.425-0.13,2.092-0.13a1.97,1.97,0,0,0,1.336-.67,9.983,9.983,0,0,0,.623-0.81,0.481,0.481,0,0,0-.356-0.84c-0.846.08-1.736,0.17-2.627,0.31-0.756.09-1.647,0.22-2.537,0.35m8.948-9.9a11.685,11.685,0,0,0-12.153-11.6,17.206,17.206,0,0,0-11,4.24,18.326,18.326,0,0,0-5.209,7.36,16.592,16.592,0,0,0-.8,2.9,16.2,16.2,0,0,0-.223,2.9,12.025,12.025,0,0,0,3.161,7.94h0c1.068-.44,2.137-0.89,3.205-1.34,0.846-.35,1.736-0.67,2.582-0.98a0.53,0.53,0,0,0,.223-0.89,6.676,6.676,0,0,1-1.692-1.47,6.413,6.413,0,0,1-1.2-2.14,0.924,0.924,0,0,1,.89-1.12h19.856a1.9,1.9,0,0,0,1.78-1.38,14.718,14.718,0,0,0,.356-1.52,12.84,12.84,0,0,0,.223-2.9m-11.263,0h-9.883a0.669,0.669,0,0,1-.49-1.12,10.1,10.1,0,0,1,1.959-2.14,10.4,10.4,0,0,1,6.589-2.54,7.247,7.247,0,0,1,5.7,2.54,6.413,6.413,0,0,1,1.2,2.14,0.924,0.924,0,0,1-.89,1.12h-4.185Z" transform="translate(-545 -3879)"/>
</svg>
