<svg xmlns="http://www.w3.org/2000/svg" width="49" height="49" viewBox="0 0 49 49">
  <defs>
    <style>
      .cls-1 {
        fill: #f3acbc;
        fill-rule: evenodd;
      }
    </style>
  </defs>
  <path id="ICON_INCENTIVO" data-name="ICON INCENTIVO" class="cls-1" d="M907.967,1673.46a2.45,2.45,0,1,0,2.45,2.45A2.446,2.446,0,0,0,907.967,1673.46Zm0,3.26a0.812,0.812,0,0,1-.817-0.81,0.817,0.817,0,1,1,1.634,0A0.812,0.812,0,0,1,907.967,1676.72Zm-10.617,19.6h3.267v1.63H897.35v-1.63Zm4.9,0H914.5v1.63H902.25v-1.63Zm-4.9,4.9h3.267v1.63H897.35v-1.63Zm0,4.9h3.267v1.63H897.35v-1.63Zm0,4.9h3.267v1.63H897.35v-1.63Zm40.834-13.07h-0.817a12.263,12.263,0,0,1-7.35-2.45l-1.96-1.47a0.81,0.81,0,0,0-.98,0l-1.143.86v-16.53a2.456,2.456,0,0,0-2.45-2.45H916.8a2.464,2.464,0,0,0-2.3-1.64h-1.911a4.9,4.9,0,0,0-9.245,0h-1.911a2.465,2.465,0,0,0-2.3,1.64h-6.68a2.456,2.456,0,0,0-2.45,2.45v39.19a2.462,2.462,0,0,0,2.45,2.45h31.034a2.476,2.476,0,0,0,1.919-.94l1.813,0.86a0.788,0.788,0,0,0,.7,0l7.171-3.41a7.323,7.323,0,0,0,3.912-6.49v-11.25a0.82,0.82,0,0,0-.817-0.82h0Zm-21.234-20.41h6.534a0.82,0.82,0,0,1,.816.82v17.71a12.457,12.457,0,0,1-1.633.85v-16.93a0.82,0.82,0,0,0-.817-0.82h-4.9v-1.63Zm-16.333-.82a0.811,0.811,0,0,1,.816-0.81h2.532a0.808,0.808,0,0,0,.8-0.66,3.267,3.267,0,0,1,6.4,0,0.809,0.809,0,0,0,.8.66H914.5a0.812,0.812,0,0,1,.817.81v3.27h-14.7v-3.27Zm-0.817,4.9h16.334a0.811,0.811,0,0,0,.816-0.81h4.084v16.69a12.433,12.433,0,0,1-3.267.45H916.95a0.82,0.82,0,0,0-.816.82v2.45H902.25v1.63h13.884v3.27H902.25v1.63h13.884v2.27a8.189,8.189,0,0,0,.065,1H902.25v1.63h14.382a7.425,7.425,0,0,0,1.56,2.45H894.9v-34.29h4.083a0.812,0.812,0,0,0,.817.81h0Zm23.684,36.75H892.45a0.82,0.82,0,0,1-.817-0.82v-39.19a0.82,0.82,0,0,1,.817-0.82h6.533v1.63h-4.9a0.82,0.82,0,0,0-.816.82v35.93a0.811,0.811,0,0,0,.816.81h26.428l3.283,1.56A0.841,0.841,0,0,1,923.484,1718.37Zm13.883-8.35a5.676,5.676,0,0,1-3.013,5.03l-6.787,3.23-6.77-3.22a5.7,5.7,0,0,1-3.03-5.04v-10.43a13.977,13.977,0,0,0,8.33-2.78l1.47-1.1,1.47,1.1a13.977,13.977,0,0,0,8.33,2.78v10.43Zm-24.5-23.5h-2.45v-2.45a0.812,0.812,0,0,0-.817-0.81h-3.266a0.811,0.811,0,0,0-.817.81v2.45h-2.45a0.82,0.82,0,0,0-.817.82v3.26a0.814,0.814,0,0,0,.817.82h2.45v2.45a0.82,0.82,0,0,0,.817.82H909.6a0.82,0.82,0,0,0,.817-0.82v-2.45h2.45a0.814,0.814,0,0,0,.817-0.82v-3.26A0.82,0.82,0,0,0,912.867,1686.52Zm-0.817,3.27H909.6a0.811,0.811,0,0,0-.816.81v2.45H907.15v-2.45a0.811,0.811,0,0,0-.816-0.81h-2.451v-1.64h2.451a0.811,0.811,0,0,0,.816-0.81v-2.45h1.634v2.45a0.811,0.811,0,0,0,.816.81h2.45v1.64Zm22.99,11.25a15.661,15.661,0,0,1-6.983-2.92,0.81,0.81,0,0,0-.98,0,15.662,15.662,0,0,1-6.982,2.92,0.818,0.818,0,0,0-.7.81v8.17a4.09,4.09,0,0,0,2.107,3.57l0.049,0.02,5.66,2.69a0.788,0.788,0,0,0,.7,0l5.709-2.71a4.1,4.1,0,0,0,2.107-3.57v-8.17a0.817,0.817,0,0,0-.694-0.81h0Zm-0.939,8.98a2.43,2.43,0,0,1-1.225,2.12l-5.309,2.52-5.292-2.51a2.445,2.445,0,0,1-1.241-2.13v-7.49a17.018,17.018,0,0,0,6.533-2.76,17.016,17.016,0,0,0,6.534,2.76v7.49Zm-10.04-2.03-1.155,1.15,2.45,2.45a0.815,0.815,0,0,0,1.155,0l6.534-6.53-1.155-1.15-5.956,5.95Z" transform="translate(-890 -1671)"/>
</svg>
