<svg xmlns="http://www.w3.org/2000/svg" width="17.88" height="18.35" viewBox="0 0 17.88 18.35">
  <defs>
    <style>
      .cls-1 {
        fill: #4896e9;
        fill-rule: evenodd;
      }
    </style>
  </defs>
  <path id="INSTAGRAM" class="cls-1" d="M1151.02,4102.74a2.966,2.966,0,1,1,2.96,3.03,3,3,0,0,1-2.96-3.03m-1.61,0a4.571,4.571,0,1,0,4.57-4.68,4.623,4.623,0,0,0-4.57,4.68m8.26-4.86a1.065,1.065,0,1,0,1.06-1.09,1.074,1.074,0,0,0-1.06,1.09m-7.28,12.27a4.9,4.9,0,0,1-1.65-.31,2.943,2.943,0,0,1-1.69-1.73c-0.53-1.39-.36-7.98-0.31-9.05a3.968,3.968,0,0,1,.97-2.74c0.89-.91,2.04-1.36,9.87-0.99a3.72,3.72,0,0,1,2.68.99c0.89,0.91,1.33,2.1.97,10.1a5.151,5.151,0,0,1-.31,1.69c-0.8,2.12-2.66,2.41-10.53,2.04m-0.08-16.46a5.253,5.253,0,0,0-3.73,1.47,5.5,5.5,0,0,0-1.44,3.82c-0.04.93-.28,7.9,0.41,9.72a4.592,4.592,0,0,0,2.6,2.67,6.755,6.755,0,0,0,2.16.42c7.93,0.37,10.87.17,12.11-3.09a6.742,6.742,0,0,0,.41-2.21c0.36-8.15-.06-9.91-1.44-11.33-1.1-1.12-2.38-1.88-11.08-1.47" transform="translate(-1145.06 -4093.59)"/>
</svg>
