<svg xmlns="http://www.w3.org/2000/svg" width="47.969" height="53" viewBox="0 0 47.969 53">
  <defs>
    <style>
      .cls-1 {
        fill: #f3acbc;
        fill-rule: evenodd;
      }
    </style>
  </defs>
  <path id="ICON_LINGUAGEM" data-name="ICON LINGUAGEM" class="cls-1" d="M549.5,1691.06a3.422,3.422,0,0,0,1.292-1.98,5.336,5.336,0,0,0-.731-2.65,11.794,11.794,0,0,1-.785-2.08l-0.071-.3a23.543,23.543,0,0,0-.8-2.9,16.751,16.751,0,0,0-3.554-5.8c-2.59-2.74-6.325-3.82-9.636-4.52a32.655,32.655,0,0,0-14.189-.09,18.524,18.524,0,0,0-15.008,19.5c0.065,4.57,2.057,7.26,3.814,9.63a19.217,19.217,0,0,1,2.347,3.71,15.006,15.006,0,0,1,1.155,7.8,24.439,24.439,0,0,1-2.056,7.81,2.662,2.662,0,0,0,.124,2.61,2.574,2.574,0,0,0,2.2,1.2h18.027a2.626,2.626,0,0,0,2.483-1.78c0.407-1.19,1.51-3.95,3.243-4.97a72.006,72.006,0,0,0,7.475,2.23,3.279,3.279,0,0,0,3.865-2.34,5.014,5.014,0,0,0,.142-3.16,1.9,1.9,0,0,1-.073-1,1.332,1.332,0,0,1,.794-0.71c0.21-.12.422-0.24,0.622-0.38a1.293,1.293,0,0,0,.52-0.86,2.248,2.248,0,0,0-.287-1.29c0.3-.23.621-0.48,0.8-0.64,0.834-.7.312-1.63-0.032-2.24-0.119-.21-0.255-0.45-0.388-0.73a1.517,1.517,0,0,1-.1-0.89,2.439,2.439,0,0,1,1.066-.76,6.454,6.454,0,0,0,.925-0.53,2.6,2.6,0,0,0,1.294-1.75c0.1-1.07-.7-2.1-3.486-5.1a5.354,5.354,0,0,1-1.251-2.88,2.658,2.658,0,0,0-.3-0.81,1.578,1.578,0,0,1-.171-0.42,1.806,1.806,0,0,1,.725-0.93h0Zm-1.2-1.3a3.061,3.061,0,0,0-1.3,2.21,2.574,2.574,0,0,0,.363,1.23q0.076,0.15.135,0.3a6.974,6.974,0,0,0,1.7,3.79c1.052,1.14,3.01,3.24,3.029,3.72a3.144,3.144,0,0,1-.6.52,5.6,5.6,0,0,1-.671.38,3.16,3.16,0,0,0-2,2,3.246,3.246,0,0,0,.237,1.97c0.152,0.32.308,0.6,0.444,0.84,0.047,0.09.1,0.18,0.146,0.27-0.356.28-.873,0.67-1.088,0.83a0.869,0.869,0,0,0-.349.59,0.884,0.884,0,0,0,.178.66,3.117,3.117,0,0,1,.345.56l-0.194.11a2.928,2.928,0,0,0-1.632,1.81,3.547,3.547,0,0,0,.067,1.84,3.248,3.248,0,0,1-.089,2.17,1.565,1.565,0,0,1-1.823,1.19,72.176,72.176,0,0,1-7.612-2.29h-0.006c-0.863-.3-1.65-0.57-2.288-0.8-0.681-.24-1.194-0.42-1.456-0.5-3.686-1.16-4.434-2.5-4.412-3.41a0.881,0.881,0,0,0-.868-0.9,0.844,0.844,0,0,0-.641.23,0.871,0.871,0,0,0-.267.63c-0.052,2.21,1.848,3.94,5.647,5.13,0.25,0.08.745,0.25,1.4,0.48l0.676,0.24a13.4,13.4,0,0,0-2.942,5.09,0.838,0.838,0,0,1-.8.58H513.605a0.77,0.77,0,0,1-.688-0.37,0.942,0.942,0,0,1-.021-0.93,25.965,25.965,0,0,0,2.211-8.34,16.758,16.758,0,0,0-1.294-8.71,20.727,20.727,0,0,0-2.546-4.06c-1.754-2.37-3.412-4.6-3.47-8.6a16.753,16.753,0,0,1,13.64-17.76,26.856,26.856,0,0,1,6.189-.7,35,35,0,0,1,7.215.79c3.044,0.64,6.458,1.62,8.713,4a15.108,15.108,0,0,1,3.181,5.2,22.033,22.033,0,0,1,.74,2.69l0.072,0.31a13.6,13.6,0,0,0,.888,2.4,5.7,5.7,0,0,1,.6,1.69,2.07,2.07,0,0,1-.733.92h0Zm-20.954-14.8c-8.818,0-15.992,6.17-15.992,13.75s7.174,13.76,15.992,13.76a18.433,18.433,0,0,0,5.52-.8l5.213,2.6a1.783,1.783,0,0,0,1.772-.12,1.745,1.745,0,0,0,.756-1.6l-0.508-5.54a12.476,12.476,0,0,0,3.239-8.3c0-7.58-7.174-13.75-15.992-13.75h0Zm11.409,20.89a1.735,1.735,0,0,0-.426,1.31l0.54,5.52-5.208-2.59a1.722,1.722,0,0,0-.771-0.18,1.852,1.852,0,0,0-.523.08,17.067,17.067,0,0,1-5.021.71c-7.838,0-14.215-5.38-14.215-11.99s6.377-11.98,14.215-11.98,14.216,5.37,14.216,11.98a10.714,10.714,0,0,1-2.807,7.14h0Zm-20.294-10.84a3.535,3.535,0,1,0,3.554,3.54A3.551,3.551,0,0,0,518.458,1685.01Zm0,5.3a1.765,1.765,0,1,1,1.777-1.76A1.77,1.77,0,0,1,518.458,1690.31Zm8.885-5.3a3.535,3.535,0,1,0,3.554,3.54A3.55,3.55,0,0,0,527.343,1685.01Zm0,5.3a1.765,1.765,0,1,1,1.777-1.76A1.77,1.77,0,0,1,527.343,1690.31Zm8.885-5.3a3.535,3.535,0,1,0,3.554,3.54A3.55,3.55,0,0,0,536.228,1685.01Zm0,5.3a1.765,1.765,0,1,1,1.777-1.76A1.769,1.769,0,0,1,536.228,1690.31Z" transform="translate(-506.031 -1670)"/>
</svg>
