<svg xmlns="http://www.w3.org/2000/svg" width="52" height="52" viewBox="0 0 52 52">
  <defs>
    <style>
      .cls-1 {
        fill: #f3acbc;
        fill-rule: evenodd;
      }
    </style>
  </defs>
  <path id="ICON_PRATICIDADE" data-name="ICON PRATICIDADE" class="cls-1" d="M1110.95,1478.67h-0.01a0.865,0.865,0,0,0,0,1.73h0.01a0.869,0.869,0,0,1,.86.87,0.862,0.862,0,0,0,.87.86h0a0.869,0.869,0,0,0,.87-0.86A2.608,2.608,0,0,0,1110.95,1478.67Zm-10.42,3.47,1.74-.01a0.865,0.865,0,0,0,0-1.73h-1.74a0.87,0.87,0,0,0,0,1.74h0Zm0.34-3.61,1.63,0.6a0.888,0.888,0,0,0,.86-0.15,0.878,0.878,0,0,0,.3-0.82,0.861,0.861,0,0,0-.56-0.66l-1.63-.59A0.864,0.864,0,0,0,1100.87,1478.53Zm2.49,5.05a0.85,0.85,0,0,0-.85-0.15l-1.63.59a0.893,0.893,0,0,0-.56.66,0.87,0.87,0,0,0,1.15.97l1.63-.6A0.856,0.856,0,0,0,1103.36,1483.58Zm17.97-3.18h-1.73a0.865,0.865,0,0,0,0,1.73h1.73A0.865,0.865,0,1,0,1121.33,1480.4Zm-2.24-1.24h0a0.71,0.71,0,0,0,.29-0.05l1.63-.59a0.866,0.866,0,0,0,.26-1.48,0.846,0.846,0,0,0-.85-0.15l-1.63.59A0.865,0.865,0,0,0,1119.09,1479.16Zm1.93,4.84-1.63-.59a0.867,0.867,0,0,0-.59,1.63l1.63,0.59A0.867,0.867,0,0,0,1121.02,1484Zm-25.11-36.53a6.082,6.082,0,0,0-5.78,6.06,0.87,0.87,0,1,0,1.74,0,4.276,4.276,0,0,1,1.6-3.36,4.373,4.373,0,0,1,3.67-.87,4.284,4.284,0,0,1,3.29,3.29,4.33,4.33,0,0,1-3.61,5.23,1.749,1.749,0,0,0-1.49,1.71v0.94a0.87,0.87,0,0,0,1.74,0v-0.93A6.07,6.07,0,0,0,1095.91,1447.47Zm0.91,15.85a1,1,0,0,0-.29-0.18,0.84,0.84,0,0,0-.66,0,0.88,0.88,0,0,0-.29.18,1.341,1.341,0,0,0-.18.28,0.976,0.976,0,0,0-.07.33,1.1,1.1,0,0,0,.02.18,0.88,0.88,0,0,0,.05.15,0.8,0.8,0,0,0,.08.16,1.132,1.132,0,0,1,.1.13,0.9,0.9,0,0,0,.62.25,0.754,0.754,0,0,0,.33-0.07,1.268,1.268,0,0,0,.29-0.18,1.132,1.132,0,0,1,.1-0.13,0.8,0.8,0,0,0,.08-0.16,0.88,0.88,0,0,0,.05-0.15,1.1,1.1,0,0,0,.02-0.18,0.976,0.976,0,0,0-.07-0.33A1.341,1.341,0,0,0,1096.82,1463.32Zm19.31,1.48v-17.33a3.463,3.463,0,0,0-3.46-3.47h-31.2a3.465,3.465,0,0,0-3.47,3.47v17.33a3.478,3.478,0,0,0,3.47,3.47h0.86v5.19a1.732,1.732,0,0,0,2.96,1.23l0.06-.06,5.19-6.36h22.13A3.476,3.476,0,0,0,1116.13,1464.8Zm-26,1.73a0.227,0.227,0,0,1-.04.01c-0.11.02-.22,0.05-0.33,0.08l-0.12.09a0.526,0.526,0,0,0-.14.12c-0.01.01-.03,0.01-0.04,0.02l-5.39,6.61v-6.06a0.871,0.871,0,0,0-.87-0.87h-1.73a1.733,1.733,0,0,1-1.74-1.73v-17.33a1.741,1.741,0,0,1,1.74-1.74h31.2a1.739,1.739,0,0,1,1.73,1.74v17.33a1.731,1.731,0,0,1-1.73,1.73h-22.54Zm36.4,5.2h-0.86v-5.2a1.731,1.731,0,0,0-2.96-1.22l-0.06.06-5.19,6.36h-22.13a3.476,3.476,0,0,0-3.46,3.47v17.33a3.463,3.463,0,0,0,3.46,3.47h31.2a3.465,3.465,0,0,0,3.47-3.47V1475.2A3.478,3.478,0,0,0,1126.53,1471.73Zm1.74,20.8a1.741,1.741,0,0,1-1.74,1.74h-31.2a1.739,1.739,0,0,1-1.73-1.74V1475.2a1.731,1.731,0,0,1,1.73-1.73h22.54a0.853,0.853,0,0,0,.35-0.08c0.02-.02.05-0.03,0.07-0.05a1.178,1.178,0,0,0,.22-0.17c0.01-.01.02-0.01,0.03-0.02l5.39-6.61v6.06a0.871,0.871,0,0,0,.87.87h1.73a1.733,1.733,0,0,1,1.74,1.73v17.33h0Zm-16.61-17.29a6.067,6.067,0,0,0-4.52,10.76,0.843,0.843,0,0,1,.33.67v0.66a1.738,1.738,0,0,0,.86,1.5v1.1a2.629,2.629,0,0,0,1.09,2.11,2.569,2.569,0,0,0,1.51.49,2.7,2.7,0,0,0,.85-0.14,2.622,2.622,0,0,0,1.75-2.55v-1.01a1.726,1.726,0,0,0,.87-1.5v-0.66a0.886,0.886,0,0,1,.35-0.69,6.017,6.017,0,0,0,2.17-5.69A6.133,6.133,0,0,0,1111.66,1475.24Zm-0.42,15.51a0.874,0.874,0,0,1-.81-0.12,0.845,0.845,0,0,1-.36-0.7v-0.86h1.73v0.78A0.936,0.936,0,0,1,1111.24,1490.75Zm2.42-6.12a2.6,2.6,0,0,0-.99,2.04v0.66h-3.47v-0.66a2.588,2.588,0,0,0-.98-2.03,4.335,4.335,0,0,1,2.71-7.71,4.708,4.708,0,0,1,.53.03,4.372,4.372,0,0,1,3.75,3.6A4.314,4.314,0,0,1,1113.66,1484.63Z" transform="translate(-1078 -1444)"/>
</svg>
