<svg xmlns="http://www.w3.org/2000/svg" width="43" height="47.97" viewBox="0 0 43 47.97">
  <defs>
    <style>
      .cls-1 {
        fill: #f3acbc;
        fill-rule: evenodd;
      }
    </style>
  </defs>
  <path id="ICON_PRIVACIDADE" data-name="ICON PRIVACIDADE" class="cls-1" d="M359.3,1454.31a87.046,87.046,0,0,1-20.344-8.19,0.926,0.926,0,0,0-.912,0,84.652,84.652,0,0,1-20.344,8.19,0.928,0.928,0,0,0-.7.9v10.35a29.035,29.035,0,0,0,9.5,21.72c4.651,4.33,10.045,6.72,12,6.72s7.344-2.39,12-6.72a29.035,29.035,0,0,0,9.5-21.72v-10.35A0.928,0.928,0,0,0,359.3,1454.31Zm-10.076,31.6a30.415,30.415,0,0,1-6.725,4.75,12.079,12.079,0,0,1-4,1.46,11.83,11.83,0,0,1-4-1.46,30.415,30.415,0,0,1-6.725-4.75,27.224,27.224,0,0,1-8.907-20.35v-9.62a86.718,86.718,0,0,0,19.631-7.93,89.259,89.259,0,0,0,19.63,7.93v9.62h0A27.224,27.224,0,0,1,349.224,1485.91Zm6.83-29.1a90.1,90.1,0,0,1-17.114-6.96,0.915,0.915,0,0,0-.879,0,89.26,89.26,0,0,1-17.114,6.97,0.929,0.929,0,0,0-.675.9v7.84a25.654,25.654,0,0,0,8.078,18.96,29.659,29.659,0,0,0,6.3,4.63,16.916,16.916,0,0,0,3.683,1.54,0.965,0.965,0,0,0,.17.01,0.953,0.953,0,0,0,.169-0.01,16.928,16.928,0,0,0,3.684-1.54,29.684,29.684,0,0,0,6.3-4.63,25.654,25.654,0,0,0,8.078-18.96v-7.85A0.947,0.947,0,0,0,356.054,1456.81Zm-1.195,8.75a23.626,23.626,0,0,1-7.5,17.6,27.276,27.276,0,0,1-5.892,4.34,16.439,16.439,0,0,1-2.963,1.31,16.378,16.378,0,0,1-2.963-1.31,27.276,27.276,0,0,1-5.892-4.34,23.626,23.626,0,0,1-7.5-17.6v-7.14a90.759,90.759,0,0,0,16.36-6.69,91.84,91.84,0,0,0,16.357,6.69v7.14h0Zm-24.115,14.03-0.019-.02a0.936,0.936,0,0,0-1.385,1.26l0.019,0.02a0.944,0.944,0,0,0,.69.31,0.9,0.9,0,0,0,.625-0.25A0.934,0.934,0,0,0,330.744,1479.59Zm5.042,4.26a24.847,24.847,0,0,1-3.223-2.45,0.937,0.937,0,0,0-1.246,1.4,26.138,26.138,0,0,0,3.471,2.63,0.917,0.917,0,0,0,.5.15A0.938,0.938,0,0,0,335.786,1483.85Zm7.659-18.25v-3.09a4.945,4.945,0,1,0-9.89,0v3.09a2.085,2.085,0,0,0-2,2.08v7.2a2.089,2.089,0,0,0,2.081,2.09h9.738a2.09,2.09,0,0,0,2.081-2.09v-7.2A2.085,2.085,0,0,0,343.445,1465.6Zm-8.021-3.09a3.076,3.076,0,1,1,6.151,0v3.09h-6.151v-3.09h0Zm8.156,12.37a0.21,0.21,0,0,1-.211.21H333.63a0.21,0.21,0,0,1-.211-0.21v-7.2h0a0.215,0.215,0,0,1,.211-0.21h9.738a0.216,0.216,0,0,1,.211.21v7.2Zm-5.08-5.48a1.314,1.314,0,0,0-.935,2.23v0.91a0.935,0.935,0,1,0,1.87,0v-0.91A1.314,1.314,0,0,0,338.5,1469.4Z" transform="translate(-317 -1446.03)"/>
</svg>
