<svg xmlns="http://www.w3.org/2000/svg" width="17.97" height="14.88" viewBox="0 0 17.97 14.88">
  <defs>
    <style>
      .cls-1 {
        fill: #4895e9;
        fill-rule: evenodd;
      }
    </style>
  </defs>
  <path id="TWITTER" class="cls-1" d="M1250.63,4110.47a10.522,10.522,0,0,0,10.49-10.68c0-.16,0-0.33-0.01-0.49a7.509,7.509,0,0,0,1.83-1.94,7.367,7.367,0,0,1-2.11.59,3.782,3.782,0,0,0,1.62-2.08,7.468,7.468,0,0,1-2.34.92,3.643,3.643,0,0,0-5.22-.17,3.82,3.82,0,0,0-1.06,3.59,10.442,10.442,0,0,1-7.6-3.92,3.809,3.809,0,0,0,1.15,5.01,3.69,3.69,0,0,1-1.68-.47v0.05a3.752,3.752,0,0,0,2.96,3.68,3.584,3.584,0,0,1-1.66.06,3.69,3.69,0,0,0,3.44,2.61,7.366,7.366,0,0,1-4.58,1.61,6.618,6.618,0,0,1-.88-0.06,10.277,10.277,0,0,0,5.65,1.69" transform="translate(-1244.97 -4095.59)"/>
</svg>
